<?xml version="1.0" encoding="utf-8"?>
<!-- Generator: Adobe Illustrator 21.0.0, SVG Export Plug-In . SVG Version: 6.00 Build 0)  -->
<svg version="1.1" id="Layer_1" xmlns="http://www.w3.org/2000/svg" xmlns:xlink="http://www.w3.org/1999/xlink" x="0px" y="0px"
	 viewBox="0 0 375 812" style="enable-background:new 0 0 375 812;" xml:space="preserve">
<path id="path-1" d="M292,8.7V9c0,9.3-7.1,21-23.3,21h-162C90.4,30,83.3,18.3,83.3,9V8.7c0-4.3,0-8.7-7.7-8.7H43.3
	C16.3,0,0,16.3,0,43.3v725.3c0,27,16.3,43.3,43.3,43.3h288.3c27,0,43.3-16.3,43.3-43.3V43.3c0-27-16.3-43.3-43.3-43.3h-32
	C292,0,292,4.4,292,8.7z"/>
</svg>
