<?xml version="1.0" encoding="utf-8"?>
<!-- Generator: Adobe Illustrator 21.0.0, SVG Export Plug-In . SVG Version: 6.00 Build 0)  -->
<svg version="1.1" id="Layer_1" xmlns="http://www.w3.org/2000/svg" xmlns:xlink="http://www.w3.org/1999/xlink" x="0px" y="0px"
	 viewBox="0 0 375 44" style="enable-background:new 0 0 375 44;" xml:space="preserve">
<style type="text/css">
	.st0{opacity:0.35;fill:none;stroke:#000000;enable-background:new    ;}
	.st1{opacity:0.4;enable-background:new    ;}
	.st2{enable-background:new    ;}
	.st3{font-family:'-apple-system'; font-weight: 700}
	.st4{font-size:16px;}
	.st5{font-size:14px;}
</style>
<title>Bars/Status Bar/Light Status Bar</title>
<desc>Created with Sketch.</desc>
<g id="Symbols">
	<g id="Bars_x2F_Status-Bar_x2F_Light-Status-Bar">
		<g id="Battery" transform="translate(336.000000, 17.000000)">
			<path id="Border" class="st0" d="M1.8,0.8h15.7c1.5,0,2.7,1.2,2.7,2.7v5c0,1.5-1.2,2.7-2.7,2.7H1.8c-1.5,0-2.7-1.2-2.7-2.7v-5
				C-0.9,2,0.3,0.8,1.8,0.8z"/>
			<path id="Cap" class="st1" d="M21.6,4v4C22.4,7.7,23,6.9,23,6S22.4,4.3,21.6,4"/>
			<path id="Capacity" d="M2,2.3h15.3c0.7,0,1.3,0.6,1.3,1.3v4.7c0,0.7-0.6,1.3-1.3,1.3H2c-0.7,0-1.3-0.6-1.3-1.3V3.7
				C0.6,2.9,1.2,2.3,2,2.3z"/>
		</g>
		<path id="Wifi" d="M322,19.6c2.2,0,4.3,0.9,6,2.4c0.1,0.1,0.3,0.1,0.4,0l1.2-1.2c0.1-0.1,0.1-0.1,0.1-0.2c0-0.1,0-0.2-0.1-0.2
			c-4.2-4-10.9-4-15.1,0c-0.1,0.1-0.1,0.1-0.1,0.2c0,0.1,0,0.2,0.1,0.2l1.2,1.2c0.1,0.1,0.3,0.1,0.4,0
			C317.6,20.5,319.7,19.6,322,19.6L322,19.6z M322,23.4c1.2,0,2.4,0.5,3.3,1.3c0.1,0.1,0.3,0.1,0.4,0l1.2-1.2
			c0.1-0.1,0.1-0.1,0.1-0.2c0-0.1,0-0.2-0.1-0.2c-2.7-2.6-7-2.6-9.8,0c-0.1,0.1-0.1,0.1-0.1,0.2c0,0.1,0,0.2,0.1,0.2l1.2,1.2
			c0.1,0.1,0.3,0.1,0.4,0C319.6,23.9,320.7,23.4,322,23.4L322,23.4z M324.2,26.2c0.1-0.1,0.1-0.1,0.1-0.2c0-0.1,0-0.2-0.1-0.2
			c-1.3-1.1-3.1-1.1-4.4,0c-0.1,0.1-0.1,0.1-0.1,0.2s0,0.2,0.1,0.2l2,2c0.1,0.1,0.1,0.1,0.2,0.1c0.1,0,0.2,0,0.2-0.1L324.2,26.2z"/>
		<path id="Cellular-Connection" d="M293.3,24.3h1c0.6,0,1,0.4,1,1v2c0,0.6-0.4,1-1,1h-1c-0.6,0-1-0.4-1-1v-2
			C292.3,24.8,292.7,24.3,293.3,24.3L293.3,24.3z M298,22.3h1c0.6,0,1,0.4,1,1v4c0,0.6-0.4,1-1,1h-1c-0.6,0-1-0.4-1-1v-4
			C297,22.8,297.4,22.3,298,22.3z M302.6,20h1c0.6,0,1,0.4,1,1v6.3c0,0.6-0.4,1-1,1h-1c-0.6,0-1-0.4-1-1V21
			C301.6,20.4,302.1,20,302.6,20z M307.3,17.7h1c0.6,0,1,0.4,1,1v8.7c0,0.6-0.4,1-1,1h-1c-0.6,0-1-0.4-1-1v-8.7
			C306.3,18.1,306.7,17.7,307.3,17.7L307.3,17.7z"/>
		<g id="Bars_x2F__x5F__x2F_Time-Black" transform="translate(21.000000, 9.000000)">
			<text transform="matrix(1 0 0 1 7.6169 19.333)" class="st2"><tspan x="0" y="0" class="st3 st4">15</tspan><tspan x="17.1" y="-1.3" class="st3 st4">:</tspan><tspan x="22.1" y="0" class="st3 st4">27</tspan></text>
			<text transform="matrix(1 0 0 1 32.2701 20)" class="st3 st5"> </text>
		</g>
	</g>
</g>
</svg>
