<?xml version="1.0" encoding="UTF-8"?>
<svg width="16px" height="16px" viewBox="0 0 16 16" version="1.1" xmlns="http://www.w3.org/2000/svg" xmlns:xlink="http://www.w3.org/1999/xlink">
    <!-- Generator: Sketch 45.1 (43504) - http://www.bohemiancoding.com/sketch -->
    <title>TTP - FFWD</title>
    <desc>Created with Sketch.</desc>
    <defs></defs>
    <g id="Page-1" stroke="none" stroke-width="1" fill="none" fill-rule="evenodd">
        <g id="Time-Traveling-Preview---Icons" transform="translate(-27.000000, -12.000000)">
            <g id="TTP---FFWD" transform="translate(35.000000, 20.000000) scale(-1, 1) translate(-35.000000, -20.000000) translate(27.000000, 12.000000)">
                <g id="RWD-Copy" transform="translate(8.000000, 8.000000) scale(-1, 1) translate(-8.000000, -8.000000) " fill="#F2F2F2">
                    <g id="Group-5-Copy-3" transform="translate(8.000000, 8.000000) scale(-1, 1) translate(-8.000000, -8.000000) ">
                        <circle id="Oval-6" cx="8" cy="8" r="8"></circle>
                    </g>
                </g>
                <path d="M7.36077442,7.75520382 L9.83564816,5.28033009 C10.1285414,4.98743687 10.1285414,4.51256313 9.83564816,4.21966991 L9.83564816,4.21966991 L9.83564816,4.21966991 C9.54275494,3.9267767 9.0678812,3.9267767 8.77498798,4.21966991 L5.71966991,7.27498798 C5.4267767,7.5678812 5.4267767,8.04275494 5.71966991,8.33564816 C5.81525508,8.43123332 5.93022174,8.49562444 6.05191966,8.52882152 C6.08467025,8.58688704 6.12576771,8.64151745 6.17521203,8.69096177 L6.17521203,8.69096177 L8.77498798,11.2907377 C9.0678812,11.5836309 9.54275494,11.5836309 9.83564816,11.2907377 C10.1285414,10.9978445 10.1285414,10.5229708 9.83564816,10.2300776 L7.36077442,7.75520382 Z" id="Combined-Shape" fill="#535353"></path>
            </g>
        </g>
    </g>
</svg>