<?xml version="1.0" encoding="UTF-8"?>
<svg width="16px" height="16px" viewBox="0 0 16 16" version="1.1" xmlns="http://www.w3.org/2000/svg" xmlns:xlink="http://www.w3.org/1999/xlink">
    <!-- Generator: Sketch 45.1 (43504) - http://www.bohemiancoding.com/sketch -->
    <title>TTP - Delete</title>
    <desc>Created with Sketch.</desc>
    <defs></defs>
    <g id="Page-1" stroke="none" stroke-width="1" fill="none" fill-rule="evenodd">
        <g id="Time-Traveling-Preview---Icons" transform="translate(-51.000000, -34.000000)">
            <g id="TTP---Delete" transform="translate(51.000000, 34.000000)">
                <g id="RWD-Copy-2" transform="translate(8.000000, 8.000000) scale(-1, 1) translate(-8.000000, -8.000000) " fill="#F2F2F2">
                    <g id="Group-5-Copy-3" transform="translate(8.000000, 8.000000) scale(-1, 1) translate(-8.000000, -8.000000) ">
                        <circle id="Oval-6" cx="8" cy="8" r="8"></circle>
                    </g>
                </g>
                <path d="M9.31066017,8 L11.7855339,5.52512627 C12.0784271,5.23223305 12.0784271,4.75735931 11.7855339,4.46446609 L11.7855339,4.46446609 L11.7855339,4.46446609 C11.4926407,4.17157288 11.017767,4.17157288 10.7248737,4.46446609 L8.25,6.93933983 L5.77512627,4.46446609 C5.48223305,4.17157288 5.00735931,4.17157288 4.71446609,4.46446609 L4.71446609,4.46446609 L4.71446609,4.46446609 C4.42157288,4.75735931 4.42157288,5.23223305 4.71446609,5.52512627 L4.71446609,5.52512627 L7.18933983,8 L4.71446609,10.4748737 C4.42157288,10.767767 4.42157288,11.2426407 4.71446609,11.5355339 C5.00735931,11.8284271 5.48223305,11.8284271 5.77512627,11.5355339 L8.25,9.06066017 L10.7248737,11.5355339 C11.017767,11.8284271 11.4926407,11.8284271 11.7855339,11.5355339 C12.0784271,11.2426407 12.0784271,10.767767 11.7855339,10.4748737 L9.31066017,8 Z" id="Combined-Shape" fill="#FF385D"></path>
            </g>
        </g>
    </g>
</svg>