<?xml version="1.0" encoding="UTF-8"?>
<svg width="50px" height="50px" viewBox="0 0 50 50" version="1.1" xmlns="http://www.w3.org/2000/svg" xmlns:xlink="http://www.w3.org/1999/xlink">
    <!-- Generator: Sketch 53.1 (72631) - https://sketchapp.com -->
    <title>application-logo-square-50x50</title>
    <desc>Created with Sketch.</desc>
    <g id="application-logo-square-50x50" stroke="none" stroke-width="1" fill="none" fill-rule="evenodd">
        <g id="Group-3" transform="translate(-1.304348, 3.043478)">
            <path d="M27.7610619,2.45101956 L50.6375035,37.5282299 C51.1621911,38.3327509 50.9353413,39.4102874 50.1308203,39.934975 C49.8482388,40.1192672 49.5181556,40.2173913 49.1807894,40.2173913 L3.42790627,40.2173913 C2.46741105,40.2173913 1.68877584,39.4387561 1.68877584,38.4782609 C1.68877584,38.1408947 1.78689991,37.8108114 1.97119219,37.5282299 L24.8476337,2.45101956 C25.3723213,1.64649859 26.4498578,1.41964881 27.2543787,1.9443364 C27.4566133,2.07622851 27.6291698,2.248785 27.7610619,2.45101956 Z" id="Rectangle" fill="#4400FF"></path>
            <g id="Group-2" transform="translate(25.869565, 26.739130) rotate(180.000000) translate(-25.869565, -26.739130) translate(19.130435, 20.000000)" stroke="#FFFFFF">
                <ellipse id="Oval" stroke-width="0.5" fill="#FFFFFF" cx="1.41708922" cy="1.61711424" rx="1.16708922" ry="1.14972293"></ellipse>
                <ellipse id="Oval" stroke-width="0.5" fill="#FFFFFF" cx="11.8518718" cy="1.61711424" rx="1.16708922" ry="1.14972293"></ellipse>
                <path d="M1.30434783,10.1845728 C2.17391304,12.2750659 3.91304348,13.3203125 6.52173913,13.3203125 C9.13043478,13.3203125 10.8695652,12.2750659 11.7391304,10.1845728" id="Path-2" stroke-width="1.30434783" stroke-linecap="round" stroke-linejoin="round"></path>
            </g>
        </g>
    </g>
</svg>