<?xml version="1.0" encoding="UTF-8"?>
<svg width="150px" height="150px" viewBox="0 0 150 150" version="1.1" xmlns="http://www.w3.org/2000/svg" xmlns:xlink="http://www.w3.org/1999/xlink">
    <!-- Generator: Sketch 53.1 (72631) - https://sketchapp.com -->
    <title>application-logo-circular-150x150</title>
    <desc>Created with Sketch.</desc>
    <g id="application-logo-circular-150x150" stroke="none" stroke-width="1" fill="none" fill-rule="evenodd">
        <g id="Group-3" transform="translate(14.500000, 10.000000)">
            <path d="M63.8504424,5.63734499 L116.466258,86.3149289 C117.673039,88.1653271 117.151285,90.6436609 115.300887,91.8504424 C114.650949,92.2743146 113.891758,92.5 113.115816,92.5 L7.88418442,92.5 C5.67504542,92.5 3.88418442,90.709139 3.88418442,88.5 C3.88418442,87.7240578 4.10986979,86.9648663 4.53374204,86.3149289 L57.1495576,5.63734499 C58.3563391,3.78694676 60.8346729,3.26519227 62.6850711,4.47197373 C63.1502106,4.77532558 63.5470905,5.17220549 63.8504424,5.63734499 Z" id="Rectangle" fill="#4400FF"></path>
            <g id="Group-2" transform="translate(59.500000, 61.500000) rotate(180.000000) translate(-59.500000, -61.500000) translate(44.000000, 46.000000)" stroke="#FFFFFF">
                <ellipse id="Oval" stroke-width="0.5" fill="#FFFFFF" cx="3.25930521" cy="3.71936275" rx="3.00930521" ry="2.96936275"></ellipse>
                <ellipse id="Oval" stroke-width="0.5" fill="#FFFFFF" cx="27.2593052" cy="3.71936275" rx="3.00930521" ry="2.96936275"></ellipse>
                <path d="M3,23.4245175 C5,28.2326517 9,30.6367187 15,30.6367188 C21,30.6367188 25,28.2326517 27,23.4245175" id="Path-2" stroke-width="3" stroke-linecap="round" stroke-linejoin="round"></path>
            </g>
        </g>
    </g>
</svg>