<?xml version="1.0" encoding="UTF-8"?>
<svg width="420px" height="93px" viewBox="0 0 420 93" version="1.1" xmlns="http://www.w3.org/2000/svg" xmlns:xlink="http://www.w3.org/1999/xlink">
    <!-- Generator: Sketch 53.1 (72631) - https://sketchapp.com -->
    <title>logotype-exactsized-brandpurple</title>
    <desc>Created with Sketch.</desc>
    <g id="logotype-exactsized-brandpurple" stroke="none" stroke-width="1" fill="none" fill-rule="evenodd">
        <path d="M175.5,78.2304143 C172.041159,78.3549112 168.822564,77.9404041 165.844118,76.9868808 C162.865671,76.0333574 160.27158,74.5517304 158.061765,72.5419554 C155.85195,70.5321804 154.122555,68.0069308 152.873529,64.9661309 C151.624504,61.925331 151,58.3799561 151,54.3298999 L151,9.29735736 L160.319608,8.96190915 L160.319608,53.7051634 C160.319608,58.9123785 161.64868,62.8823928 164.306863,65.6153253 C166.965046,68.3482578 170.696054,69.6282487 175.5,69.4553364 C180.303946,69.2824241 184.018941,67.7344231 186.645098,64.8112871 C189.271255,61.888151 190.584314,57.8230364 190.584314,52.6158213 L190.584314,7.872567 L200,7.53366055 L200,52.5662031 C200,56.6162593 199.375496,60.2065907 198.126471,63.337305 C196.877445,66.4680193 195.14805,69.1177639 192.938235,71.2866182 C190.72842,73.4554726 188.134329,75.1238421 185.155882,76.2917767 C182.177436,77.4597114 178.958841,78.1059174 175.5,78.2304143 Z M226.958621,28.3976387 L237,28.0412965 L237,36.1892014 L226.958621,36.5455435 L226.958621,60.5099694 C226.958621,62.6188494 227.441374,64.1833541 228.406897,65.2035302 C229.372419,66.2237064 231.045965,66.6915288 233.427586,66.6070113 C234.006899,66.586453 234.650571,66.5316585 235.358621,66.4426262 C236.06667,66.353594 236.613791,66.2383213 237,66.0968049 L237,73.7654212 C236.613791,73.9069376 235.873569,74.1089436 234.77931,74.371445 C233.685052,74.6339464 232.365525,74.7926059 230.82069,74.847428 C226.829865,74.9890519 223.675874,73.9666739 221.358621,71.7802635 C219.041368,69.593853 217.882759,66.3918158 217.882759,62.1740557 L217.882759,36.867622 L209,37.1828477 L209,29.0349429 L211.510345,28.9458574 C214.020702,28.8567714 215.839075,28.1212449 216.965517,26.7392559 C218.09196,25.3572668 218.655172,23.6438107 218.655172,21.5988362 L218.655172,14.1219353 L226.958621,13.8272677 L226.958621,28.3976387 Z M267.5,66.2518606 C269.433343,66.1831213 271.269991,65.7654159 273.01,64.9987321 C274.750009,64.2320483 276.29666,63.119846 277.65,61.6620918 C279.00334,60.2043375 280.066663,58.4365487 280.84,56.3586723 C281.613337,54.280796 282,51.8963313 282,49.2052067 C282,46.5140822 281.613337,44.1731312 280.84,42.1822835 C280.066663,40.1914359 279.00334,38.5152776 277.65,37.1537586 C276.29666,35.7922395 274.750009,34.7900185 273.01,34.1470656 C271.269991,33.5041128 269.433343,33.2170103 267.5,33.2857497 C265.566657,33.3544891 263.730009,33.7721944 261.99,34.5388782 C260.249991,35.305562 258.70334,36.4177644 257.35,37.8755186 C255.99666,39.3332729 254.933337,41.0850433 254.16,43.1308825 C253.386663,45.1767216 253,47.545168 253,50.2362925 C253,52.9274171 253.386663,55.2843864 254.16,57.3072713 C254.933337,59.3301561 255.99666,61.0223327 257.35,62.3838518 C258.70334,63.7453709 260.249991,64.7475919 261.99,65.3905447 C263.730009,66.0334976 265.566657,66.3206 267.5,66.2518606 Z M267.5,25.2993984 C270.939042,25.1757938 274.091449,25.6849943 276.957317,26.8270154 C279.823185,27.9690365 282.3069,29.587661 284.408537,31.6829376 C286.510173,33.7782142 288.134141,36.2896669 289.280488,39.217371 C290.426835,42.1450751 291,45.3646833 291,48.8762922 C291,52.3879011 290.426835,55.6646718 289.280488,58.7067028 C288.134141,61.7487338 286.510173,64.392884 284.408537,66.639233 C282.3069,68.8855819 279.823185,70.6827439 276.957317,72.0307727 C274.091449,73.3788016 270.939042,74.1146073 267.5,74.2382119 C264.060958,74.3618166 260.908551,73.852616 258.042683,72.7105949 C255.176815,71.5685739 252.6931,69.9499493 250.591463,67.8546727 C248.489827,65.7593962 246.865859,63.2319819 245.719512,60.272354 C244.573165,57.3127262 244,54.0771563 244,50.5655475 C244,47.0539386 244.573165,43.7931295 245.719512,40.7830222 C246.865859,37.772915 248.489827,35.1447263 250.591463,32.8983774 C252.6931,30.6520284 255.176815,28.8548665 258.042683,27.5068377 C260.908551,26.1588088 264.060958,25.4230031 267.5,25.2993984 Z M303,90.6554368 L303,25.8841873 L311.657505,25.5681307 L311.657505,32.8078381 C312.926011,30.4448113 314.860452,28.4114458 317.460888,26.7076806 C320.061324,25.0039155 323.232539,24.0837411 326.97463,23.9471299 C330.399594,23.8220959 333.428105,24.3389701 336.060254,25.497768 C338.692402,26.656566 340.880541,28.2981087 342.624736,30.4224454 C344.36893,32.5467821 345.700841,35.072251 346.620507,37.9989278 C347.540174,40.9256046 348,44.0620811 348,47.4084515 C348,50.8835285 347.524318,54.1185097 346.572939,57.1134921 C345.62156,60.1084745 344.226225,62.7495941 342.386892,65.03693 C340.54756,67.324266 338.311852,69.1433966 335.679704,70.4943764 C333.047556,71.8453563 330.050757,72.5821944 326.689218,72.704913 C323.137403,72.8345779 320.093036,72.205666 317.556025,70.8181584 C315.019015,69.4306508 313.116285,67.7304245 311.84778,65.7174285 L311.84778,90.3324339 L303,90.6554368 Z M338,47.3148522 C338,45.0450275 337.684214,42.9599109 337.052632,41.05944 C336.421049,39.158969 335.536848,37.5197554 334.4,36.14175 C333.263152,34.7637446 331.857903,33.6948404 330.184211,32.9350053 C328.510518,32.1751702 326.631589,31.8325066 324.547368,31.9070042 C322.526306,31.9792443 320.678956,32.4550986 319.005263,33.3345814 C317.331571,34.2140642 315.894743,35.3845545 314.694737,36.8460876 C313.494731,38.3076206 312.578951,40.0111721 311.947368,41.9567931 C311.315786,43.9024142 311,46.0101054 311,48.2799302 C311,50.6128056 311.315786,52.760972 311.947368,54.7244936 C312.578951,56.6880152 313.494731,58.357625 314.694737,59.7333729 C315.894743,61.1091208 317.331571,62.1611338 319.005263,62.8894436 C320.678956,63.6177533 322.526306,63.9457832 324.547368,63.8735431 C326.631589,63.7990455 328.494729,63.3383893 330.136842,62.4915606 C331.778956,61.6447319 333.184205,60.4911327 334.352632,59.0307284 C335.521058,57.5703241 336.421049,55.8358121 337.052632,53.8271404 C337.684214,51.8184687 338,49.6477277 338,47.3148522 Z M359,70.2653346 L359,23.6860414 L368,23.3633539 L368,69.942647 L359,70.2653346 Z M380,56.4554726 C380,54.4209804 380.355122,52.5806766 381.065375,50.9345062 C381.775629,49.2883357 382.760284,47.8709698 384.01937,46.6823659 C385.278457,45.493762 386.779652,44.5191949 388.523002,43.7586354 C390.266353,42.9980759 392.138812,42.4237251 394.140436,42.0355657 L406.731235,39.781587 C408.151742,39.5409844 409.104114,39.0943 409.588378,38.4415204 C410.072642,37.7887408 410.31477,37.0491059 410.31477,36.2225934 C410.31477,33.9973675 409.523817,32.101933 407.941889,30.5362329 C406.35996,28.9705328 403.7934,28.2500298 400.242131,28.3747022 C397.013705,28.4880408 394.527854,29.4494929 392.784504,31.2590875 C391.041154,33.0686821 390.008073,35.3142481 389.68523,37.995853 L380.968523,36.2991723 C381.226797,34.1284573 381.888615,32.10255 382.953995,30.2213897 C384.019376,28.3402294 385.391436,26.7185323 387.070218,25.3562496 C388.749,23.993967 390.702168,22.9081674 392.929782,22.0988181 C395.157396,21.2894689 397.530254,20.840599 400.048426,20.7521949 C403.535126,20.6297892 406.505234,20.9864521 408.958838,21.822194 C411.412442,22.657936 413.414036,23.811523 414.96368,25.2829897 C416.513325,26.7544563 417.643257,28.4949424 418.353511,30.5045001 C419.063765,32.5140578 419.418886,34.6314179 419.418886,36.8566437 L419.418886,59.8399329 C419.418886,61.8744251 419.483454,63.4933701 419.612591,64.6968163 C419.741728,65.9002625 419.870863,66.785806 420,67.3534734 L411.089588,67.6662862 C410.960451,67.0986189 410.847458,66.3396625 410.750605,65.3893944 C410.653753,64.4391264 410.605327,63.1374994 410.605327,61.4844745 C410.088779,62.3291211 409.410819,63.2112104 408.571429,64.1307688 C407.732038,65.0503271 406.698957,65.913095 405.472155,66.7190982 C404.245353,67.5251014 402.808725,68.1954114 401.162228,68.7300482 C399.51573,69.2646849 397.659413,69.5682671 395.59322,69.6408038 C393.204185,69.7246743 391.057314,69.4185818 389.152542,68.7225169 C387.247771,68.0264521 385.61744,67.0823506 384.261501,65.8901841 C382.905562,64.6980176 381.856339,63.288477 381.113801,61.66152 C380.371263,60.0345629 380,58.2992311 380,56.4554726 Z M396.548387,61.662329 C398.419364,61.5980132 400.177411,61.3031435 401.822581,60.7777112 C403.46775,60.2522789 404.887091,59.4532936 406.080645,58.3807313 C407.2742,57.308169 408.225803,55.9001002 408.935484,54.1564825 C409.645165,52.4128648 410,50.3220027 410,47.8838333 L410,45.8207772 L395.774194,48.372853 C393.8387,48.7519725 392.225813,49.5107239 390.935484,50.64913 C389.645155,51.7875361 389,53.3569903 389,55.3575395 C389,57.0455029 389.677413,58.538235 391.032258,59.8357805 C392.387104,61.1333259 394.225795,61.7421694 396.548387,61.662329 Z" id="Utopia." fill="#000000"></path>
        <g id="Group-3">
            <path d="M63.8504424,5.63734499 L116.466258,86.3149289 C117.673039,88.1653271 117.151285,90.6436609 115.300887,91.8504424 C114.650949,92.2743146 113.891758,92.5 113.115816,92.5 L7.88418442,92.5 C5.67504542,92.5 3.88418442,90.709139 3.88418442,88.5 C3.88418442,87.7240578 4.10986979,86.9648663 4.53374204,86.3149289 L57.1495576,5.63734499 C58.3563391,3.78694676 60.8346729,3.26519227 62.6850711,4.47197373 C63.1502106,4.77532558 63.5470905,5.17220549 63.8504424,5.63734499 Z" id="Rectangle" fill="#4400FF"></path>
            <g id="Group-2" transform="translate(59.500000, 61.500000) rotate(180.000000) translate(-59.500000, -61.500000) translate(44.000000, 46.000000)" stroke="#FFFFFF">
                <ellipse id="Oval" stroke-width="0.5" fill="#FFFFFF" cx="3.25930521" cy="3.71936275" rx="3.00930521" ry="2.96936275"></ellipse>
                <ellipse id="Oval" stroke-width="0.5" fill="#FFFFFF" cx="27.2593052" cy="3.71936275" rx="3.00930521" ry="2.96936275"></ellipse>
                <path d="M3,23.4245175 C5,28.2326517 9,30.6367187 15,30.6367188 C21,30.6367188 25,28.2326517 27,23.4245175" id="Path-2" stroke-width="3" stroke-linecap="round" stroke-linejoin="round"></path>
            </g>
        </g>
    </g>
</svg>