<?xml version="1.0" encoding="UTF-8"?>
<svg width="50px" height="39px" viewBox="0 0 50 39" version="1.1" xmlns="http://www.w3.org/2000/svg" xmlns:xlink="http://www.w3.org/1999/xlink">
    <!-- Generator: Sketch 53.1 (72631) - https://sketchapp.com -->
    <title>triangle-happy-brandpurple-50x39</title>
    <desc>Created with Sketch.</desc>
    <g id="triangle-happy-brandpurple-50x39" stroke="none" stroke-width="1" fill="none" fill-rule="evenodd">
        <g id="Group-3" transform="translate(-1.300000, -1.300000)">
            <path d="M27.668525,2.4428495 L50.4687118,37.4031358 C50.9916504,38.2049751 50.7655568,39.2789197 49.9637176,39.8018584 C49.682078,39.9855363 49.3530951,40.0833333 49.0168534,40.0833333 L3.41647992,40.0833333 C2.45918635,40.0833333 1.68314658,39.3072936 1.68314658,38.35 C1.68314658,38.0137584 1.78094358,37.6847754 1.96462155,37.4031358 L24.7648083,2.4428495 C25.2877469,1.64101026 26.3616916,1.41491665 27.1635308,1.93785528 C27.3650913,2.06930775 27.5370726,2.24128905 27.668525,2.4428495 Z" id="Rectangle" fill="#4400FF"></path>
            <g id="Group-2" transform="translate(25.783333, 26.650000) scale(1, -1) rotate(180.000000) translate(-25.783333, -26.650000) translate(19.066667, 19.933333)" stroke="#FFFFFF">
                <ellipse id="Oval" stroke-width="0.5" fill="#FFFFFF" cx="1.41236559" cy="1.61172386" rx="1.16236559" ry="1.14505719"></ellipse>
                <ellipse id="Oval" stroke-width="0.5" fill="#FFFFFF" cx="11.8123656" cy="1.61172386" rx="1.16236559" ry="1.14505719"></ellipse>
                <path d="M1.3,10.1506242 C2.16666667,12.2341491 3.9,13.2759115 6.5,13.2759115 C9.1,13.2759115 10.8333333,12.2341491 11.7,10.1506242" id="Path-2" stroke-width="1.3" stroke-linecap="round" stroke-linejoin="round" transform="translate(6.500000, 11.713268) scale(-1, 1) translate(-6.500000, -11.713268) "></path>
            </g>
        </g>
    </g>
</svg>