<?xml version="1.0" encoding="UTF-8"?>
<svg width="295px" height="93px" viewBox="0 0 295 93" version="1.1" xmlns="http://www.w3.org/2000/svg" xmlns:xlink="http://www.w3.org/1999/xlink">
    <!-- Generator: Sketch 53.1 (72631) - https://sketchapp.com -->
    <title>wordmark-exactsized-brandpurple-295x93</title>
    <desc>Created with Sketch.</desc>
    <g id="wordmark-exactsized-brandpurple-295x93" stroke="none" stroke-width="1" fill="none" fill-rule="evenodd">
        <path d="M34.5,78.5931806 C31.0411592,78.7174951 27.8225639,78.3035953 24.8441176,77.3514689 C21.8656714,76.3993425 19.2715797,74.9198861 17.0617647,72.9130555 C14.8519497,70.9062248 13.1225553,68.3846748 11.8735294,65.3483298 C10.6245036,62.3119848 10,58.771804 10,54.7276813 L10,9.76111294 L19.3196078,9.42615616 L19.3196078,54.10386 C19.3196078,59.3034464 20.6486795,63.2676444 23.3068627,65.9965731 C25.965046,68.7255018 29.6960544,70.0036175 34.5,69.8309585 C39.3039456,69.6582995 43.0189411,68.1125664 45.645098,65.1937128 C48.271255,62.2748592 49.5843137,58.2157002 49.5843137,53.0161138 L49.5843137,8.33840994 L59,8 L59,52.9665683 C59,57.010691 58.3754964,60.5957625 57.1264706,63.7218902 C55.8774447,66.8480179 54.1480503,69.4938805 51.9382353,71.6595574 C49.7284203,73.8252343 47.1343286,75.4911596 44.1558824,76.6573832 C41.1774361,77.8236068 37.9588408,78.4688661 34.5,78.5931806 Z M85.9586207,28.8334117 L96,28.4775916 L96,36.6135595 L85.9586207,36.9693796 L85.9586207,60.8986968 C85.9586207,63.0044872 86.4413745,64.5666998 87.4068966,65.5853814 C88.3724186,66.6040629 90.0459651,67.0711999 92.4275862,66.9868063 C93.0068994,66.9662781 93.6505712,66.9115639 94.3586207,66.822662 C95.0666702,66.7337602 95.6137912,66.6186565 96,66.4773473 L96,74.1347288 C95.6137912,74.276038 94.8735687,74.4777479 93.7793103,74.7398648 C92.685052,75.0019817 91.365525,75.1604086 89.8206897,75.2151505 C85.8298651,75.3565669 82.6758737,74.3356867 80.3586207,72.1524794 C78.0413677,69.9692722 76.8827586,66.771926 76.8827586,62.5603451 L76.8827586,37.2909862 L68,37.6057501 L68,29.4697823 L70.5103448,29.3808272 C73.0207022,29.2918718 74.8390748,28.5574229 75.9655172,27.1774585 C77.0919597,25.7974941 77.6551724,24.0865483 77.6551724,22.0445697 L77.6551724,14.5786227 L85.9586207,14.2843868 L85.9586207,28.8334117 Z M126.5,66.6321759 C128.433343,66.5635372 130.269991,66.1464439 132.01,65.3808833 C133.750009,64.6153227 135.29666,63.5047498 136.65,62.0491312 C138.00334,60.5935126 139.066663,58.8283137 139.84,56.7534815 C140.613337,54.6786493 141,52.2976779 141,49.6104959 C141,46.923314 140.613337,44.5857926 139.84,42.5978616 C139.066663,40.6099306 138.00334,38.936228 136.65,37.5767035 C135.29666,36.2171791 133.750009,35.2164265 132.01,34.5744155 C130.269991,33.9324046 128.433343,33.6457228 126.5,33.7143615 C124.566657,33.7830002 122.730009,34.2000935 120.99,34.9656541 C119.249991,35.7312147 117.70334,36.8417876 116.35,38.2974062 C114.99666,39.7530248 113.933337,41.5022288 113.16,43.5450708 C112.386663,45.5879127 112,47.9528892 112,50.6400712 C112,53.3272531 112.386663,55.6807694 113.16,57.7006907 C113.933337,59.7206119 114.99666,61.4103094 116.35,62.7698339 C117.70334,64.1293583 119.249991,65.1301109 120.99,65.7721219 C122.730009,66.4141328 124.566657,66.7008146 126.5,66.6321759 Z M126.5,25.7397105 C129.939042,25.6162869 133.091449,26.1247415 135.957317,27.2650894 C138.823185,28.4054374 141.3069,30.0216906 143.408537,32.1138976 C145.510173,34.2061045 147.134141,36.7138778 148.280488,39.6372927 C149.426835,42.5607077 150,45.775599 150,49.2820633 C150,52.7885275 149.426835,56.0604977 148.280488,59.098072 C147.134141,62.1356463 145.510173,64.7759228 143.408537,67.0189807 C141.3069,69.2620387 138.823185,71.0565677 135.957317,72.4026217 C133.091449,73.7486756 129.939042,74.4834034 126.5,74.6068269 C123.060958,74.7302505 119.908551,74.2217959 117.042683,73.0814479 C114.176815,71.9411 111.6931,70.3248468 109.591463,68.2326398 C107.489827,66.1404329 105.865859,63.6167214 104.719512,60.6614295 C103.573165,57.7061376 103,54.475308 103,50.9688437 C103,47.4623795 103.573165,44.2063475 104.719512,41.2006502 C105.865859,38.1949529 107.489827,35.5706146 109.591463,33.3275567 C111.6931,31.0844987 114.176815,29.2899697 117.042683,27.9439157 C119.908551,26.5978618 123.060958,25.863134 126.5,25.7397105 Z M162,91 L162,26.3236426 L170.657505,26.008049 L170.657505,33.2371501 C171.926011,30.8775851 173.860452,28.8471985 176.460888,27.1459295 C179.061324,25.4446604 182.232539,24.5258341 185.97463,24.389423 C189.399594,24.2645722 192.428105,24.7806892 195.060254,25.9377895 C197.692402,27.0948897 199.880541,28.7340275 201.624736,30.855252 C203.36893,32.9764765 204.700841,35.4982454 205.620507,38.4206346 C206.540174,41.3430237 207,44.4749052 207,47.8163731 C207,51.2863589 206.524318,54.5166007 205.572939,57.5071954 C204.62156,60.49779 203.226225,63.1350403 201.386892,65.4190252 C199.54756,67.7030101 197.311852,69.5194757 194.679704,70.8684763 C192.047556,72.2174769 189.050757,72.9532355 185.689218,73.0757743 C182.137403,73.2052492 179.093036,72.5772587 176.556025,71.1917838 C174.019015,69.806309 172.116285,68.1085736 170.84778,66.0985267 L170.84778,90.6774703 L162,91 Z M197,47.7229109 C197,45.4564115 196.684214,43.3743497 196.052632,41.476663 C195.421049,39.5789763 194.536848,37.9421642 193.4,36.5661776 C192.263152,35.190191 190.857903,34.1228528 189.184211,33.3641309 C187.510518,32.605409 185.631589,32.2632474 183.547368,32.3376359 C181.526306,32.4097701 179.678956,32.8849273 178.005263,33.7631216 C176.331571,34.6413159 174.894743,35.8100915 173.694737,37.2694833 C172.494731,38.7288752 171.578951,40.4299309 170.947368,42.3727015 C170.315786,44.3154721 170,46.4200756 170,48.686575 C170,51.0160327 170.315786,53.1610519 170.947368,55.1216969 C171.578951,57.0823419 172.494731,58.7495056 173.694737,60.123238 C174.894743,61.4969703 176.331571,62.5474422 178.005263,63.2746849 C179.678956,64.0019277 181.526306,64.329477 183.547368,64.2573427 C185.631589,64.1829542 187.494729,63.7229729 189.136842,62.8773848 C190.778956,62.0317968 192.184205,60.8798876 193.352632,59.4216229 C194.521058,57.9633581 195.421049,56.2313873 196.052632,54.2256583 C196.684214,52.2199294 197,50.0523686 197,47.7229109 Z M218,70.63977 L218,24.1287171 L227,23.8065023 L227,70.3175552 L218,70.63977 Z M239,56.8501399 C239,54.8186283 239.355122,52.9810207 240.065375,51.3372619 C240.775629,49.6935031 241.760284,48.2782137 243.01937,47.0913511 C244.278457,45.9044886 245.779652,44.9313493 247.523002,44.171904 C249.266353,43.4124587 251.138812,42.8389494 253.140436,42.4513587 L265.731235,40.2006821 C267.151742,39.960432 268.104114,39.514402 268.588378,38.8625788 C269.072642,38.2107555 269.31477,37.4722042 269.31477,36.6469026 C269.31477,34.4249368 268.523817,32.5322791 266.941889,30.9688728 C265.35996,29.4054665 262.7934,28.6860191 259.242131,28.8105088 C256.013705,28.9236814 253.527854,29.8837249 251.784504,31.6906684 C250.041154,33.4976118 249.008073,35.739888 248.68523,38.4175643 L239.968523,36.7233693 C240.226797,34.5558344 240.888615,32.5328952 241.953995,30.6544908 C243.019376,28.7760865 244.391436,27.1567652 246.070218,25.7964784 C247.749,24.4361916 249.702168,23.3519827 251.929782,22.5438191 C254.157396,21.7356556 256.530254,21.2874433 259.048426,21.1991687 C262.535126,21.0769424 265.505234,21.4330827 267.958838,22.2676003 C270.412442,23.1021179 272.414036,24.2540148 273.96368,25.7233257 C275.513325,27.1926366 276.643257,28.9305728 277.353511,30.9371865 C278.063765,32.9438001 278.418886,35.0580582 278.418886,37.280024 L278.418886,60.2296419 C278.418886,62.2611535 278.483454,63.8777266 278.612591,65.0794097 C278.741728,66.2810929 278.870863,67.165339 279,67.7321748 L270.089588,68.0445293 C269.960451,67.4776936 269.847458,66.7198491 269.750605,65.7709733 C269.653753,64.8220974 269.605327,63.5223773 269.605327,61.8717742 C269.088779,62.7151833 268.410819,63.5959803 267.571429,64.5141915 C266.732038,65.4324027 265.698957,66.2939066 264.472155,67.098729 C263.245353,67.9035514 261.808725,68.5728793 260.162228,69.1067328 C258.51573,69.6405863 256.659413,69.9437237 254.59322,70.0161541 C252.204185,70.0999018 250.057314,69.7942577 248.152542,69.0992126 C246.247771,68.4041676 244.61744,67.4614492 243.261501,66.2710293 C241.905562,65.0806093 240.856339,63.6731337 240.113801,62.0485602 C239.371263,60.4239867 239,58.6911973 239,56.8501399 Z M255.548387,62.0493681 C257.419364,61.9851465 259.177411,61.6907088 260.822581,61.1660463 C262.46775,60.6413837 263.887091,59.843569 265.080645,58.772578 C266.2742,57.7015871 267.225803,56.2955811 267.935484,54.5545179 C268.645165,52.8134547 269,50.7256557 269,48.2910583 L269,46.2310247 L254.774194,48.7793617 C252.8387,49.1579257 251.225813,49.9155655 249.935484,51.0523038 C248.645155,52.1890421 248,53.756197 248,55.7538153 C248,57.4393058 248.677413,58.929851 250.032258,60.2254955 C251.387104,61.52114 253.225795,62.1290915 255.548387,62.0493681 Z" id="Utopia." fill="#000000"></path>
    </g>
</svg>