<svg width="14" height="14" viewBox="0 0 14 14" fill="none" xmlns="http://www.w3.org/2000/svg">
<path d="M0.5 4.85944V9.14056C0.5 10.2369 1.20711 11.2811 2.24059 11.6988L5.77615 13.2651C6.53766 13.5783 7.46234 13.5783 8.22385 13.2651L11.7594 11.6988C12.7929 11.2289 13.5 10.2369 13.5 9.14056V4.85944C13.5 3.76305 12.7929 2.71888 11.7594 2.3012L8.22385 0.73494C7.46234 0.421687 6.53766 0.421687 5.77615 0.73494L2.24059 2.3012C1.20711 2.71888 0.5 3.76305 0.5 4.85944Z" stroke="white" stroke-miterlimit="10" stroke-linecap="round" stroke-linejoin="round"/>
<path d="M1.20416 3.45208L5.97083 5.61875C6.62083 5.88958 7.37916 5.88958 8.02916 5.61875L13.0125 3.34375" stroke="white" stroke-miterlimit="10" stroke-linecap="round" stroke-linejoin="round"/>
<path d="M7 5.91663V12.9583" stroke="white" stroke-miterlimit="10" stroke-linecap="round" stroke-linejoin="round"/>
</svg>