<?xml version="1.0" standalone="no"?>
<!DOCTYPE svg PUBLIC "-//W3C//DTD SVG 20010904//EN"
 "http://www.w3.org/TR/2001/REC-SVG-20010904/DTD/svg10.dtd">
<svg version="1.0" xmlns="http://www.w3.org/2000/svg"
 width="624.000000pt" height="624.000000pt" viewBox="0 0 624.000000 624.000000"
 preserveAspectRatio="xMidYMid meet">
<metadata>
Created by potrace 1.14, written by Peter Selinger 2001-2017
</metadata>
<g transform="translate(0.000000,624.000000) scale(0.100000,-0.100000)"
fill="#000000" stroke="none">
<path d="M3063 5452 c-29 -15 -397 -466 -1061 -1302 -86 -107 -226 -283 -312
-390 -86 -107 -313 -391 -505 -630 -192 -239 -365 -455 -385 -480 -21 -25
-170 -211 -332 -415 -163 -203 -319 -399 -347 -434 -57 -70 -101 -149 -101
-181 0 -32 17 -58 50 -75 16 -8 161 -50 322 -94 161 -44 356 -98 433 -120 77
-22 181 -52 230 -66 50 -15 142 -41 205 -60 63 -19 196 -56 295 -83 330 -92
796 -223 1135 -319 312 -90 341 -96 425 -96 62 0 112 7 160 21 149 44 1062
301 1500 422 99 27 257 72 350 100 153 45 291 84 840 235 94 26 179 52 190 57
74 38 85 97 33 169 -29 41 -381 482 -734 919 -87 107 -268 332 -403 500 -134
168 -270 335 -300 371 -31 37 -123 151 -206 255 -82 104 -255 319 -384 479
-129 159 -327 405 -440 545 -469 583 -533 661 -561 675 -38 19 -58 19 -97 -3z
m203 -253 c49 -62 107 -133 129 -160 22 -26 59 -72 82 -101 52 -65 233 -289
275 -341 18 -21 41 -51 52 -67 12 -15 66 -83 121 -149 107 -130 111 -136 290
-360 67 -85 207 -257 223 -276 9 -11 33 -40 52 -65 19 -25 43 -54 52 -65 31
-36 193 -237 212 -264 11 -14 36 -45 55 -68 20 -23 56 -67 81 -98 25 -31 59
-73 75 -93 17 -21 46 -57 65 -82 19 -25 47 -58 62 -75 15 -16 28 -33 28 -37 0
-4 19 -29 43 -56 23 -28 63 -76 89 -108 41 -52 112 -139 251 -311 23 -28 61
-75 84 -105 38 -47 171 -213 286 -356 23 -29 64 -78 90 -110 27 -31 53 -65 59
-75 9 -17 7 -18 -23 -12 -19 4 -61 17 -94 28 -33 11 -125 37 -205 59 -80 22
-217 60 -305 84 -88 25 -214 60 -280 78 -66 19 -203 57 -305 86 -102 29 -257
72 -345 97 -88 25 -231 65 -317 89 -367 103 -489 136 -588 163 -58 16 -159 45
-226 65 -66 20 -130 36 -141 36 -19 0 -20 10 -26 947 -9 1286 -9 1825 2 1819
5 -3 48 -56 97 -117z m-205 -1358 l4 -1283 -105 -28 c-58 -15 -172 -46 -255
-70 -384 -108 -480 -135 -625 -175 -85 -24 -227 -63 -315 -88 -88 -25 -212
-59 -275 -76 -63 -18 -146 -41 -185 -53 -38 -11 -126 -36 -195 -55 -69 -19
-197 -55 -285 -80 -88 -24 -223 -62 -300 -82 -77 -21 -169 -48 -205 -59 -36
-11 -76 -24 -89 -27 l-24 -7 23 33 c13 19 40 53 59 76 44 52 136 166 274 342
23 30 58 72 77 95 20 23 42 51 50 62 8 12 69 89 135 170 66 82 132 164 147
184 55 69 95 120 221 276 192 239 220 274 242 299 11 13 65 81 120 151 55 70
116 146 136 168 20 23 40 48 45 57 5 9 26 36 46 60 41 48 191 236 222 278 11
14 34 42 51 61 17 19 38 45 46 56 8 12 50 66 94 120 44 55 91 113 105 131 27
34 96 120 145 182 17 21 93 115 170 210 77 95 153 189 168 209 16 20 36 46 45
57 9 11 33 40 52 65 19 25 64 81 100 125 l65 79 6 -90 c4 -50 8 -667 10 -1373z"/>
<path d="M3476 3550 c-94 -48 -120 -99 -114 -224 4 -83 8 -98 43 -166 49 -92
139 -183 215 -219 79 -37 179 -40 240 -9 71 36 95 89 95 204 -1 86 -3 97 -40
170 -94 191 -309 311 -439 244z m134 -67 l51 -58 -78 -18 c-43 -10 -82 -22
-86 -26 -5 -5 39 -56 98 -114 l107 -105 -34 -37 c-27 -30 -43 -38 -80 -42 -85
-10 -110 1 -146 60 -57 95 -73 241 -33 315 14 25 53 59 81 71 49 19 67 13 120
-46z"/>
<path d="M4422 3269 c-54 -27 -80 -64 -94 -134 -49 -232 236 -527 436 -451 54
21 99 73 116 136 19 69 5 140 -47 239 -95 182 -277 276 -411 210z m41 -45 c41
-22 97 -64 97 -74 0 -4 -12 -11 -27 -14 -43 -10 -83 -28 -83 -36 0 -4 44 -47
98 -96 53 -48 98 -96 100 -105 9 -50 -64 -119 -125 -119 -27 0 -40 9 -83 63
-100 123 -120 289 -43 369 32 33 26 32 66 12z"/>
</g>
</svg>
