<?xml version="1.0" encoding="UTF-8"?>
<svg width="121px" height="133px" viewBox="0 0 121 133" version="1.1" xmlns="http://www.w3.org/2000/svg" xmlns:xlink="http://www.w3.org/1999/xlink">
    <!-- Generator: Sketch 49.2 (51160) - http://www.bohemiancoding.com/sketch -->
    <title>Utopino</title>
    <desc>Created with Sketch.</desc>
    <defs>
        <linearGradient x1="9.68518926%" y1="93.9225626%" x2="94.6514453%" y2="10.1107056%" id="linearGradient-1">
            <stop stop-color="#1FA2FF" offset="0%"></stop>
            <stop stop-color="#12D8FA" offset="54.0238361%"></stop>
            <stop stop-color="#A6FFCB" offset="100%"></stop>
        </linearGradient>
        <path d="M103.037678,3.77145741 C117.636549,10.6178423 139.841157,25.6547328 122.461483,64.6253778 C103.902157,106.241168 20.5085838,139.362186 8.1949745,102.689729 C-29.4066532,-9.29564115 88.438808,-3.07492754 103.037678,3.77145741 Z" id="path-2"></path>
        <circle id="path-3" cx="14" cy="14.0078125" r="13.9921875"></circle>
        <circle id="path-4" cx="14" cy="14.5" r="7.64550781"></circle>
        <circle id="path-5" cx="14" cy="14.0078125" r="13.9921875"></circle>
        <circle id="path-6" cx="14" cy="14.5" r="7.64550781"></circle>
    </defs>
    <g id="Page-1" stroke="none" stroke-width="1" fill="none" fill-rule="evenodd">
        <g id="Utopino" transform="translate(63.729656, 65.519459) rotate(-18.000000) translate(-63.729656, -65.519459) translate(-0.770344, 6.019459)">
            <g id="Group-3" transform="translate(-0.000000, 0.000000)">
                <g id="Rectangle">
                    <use fill="url(#linearGradient-1)" fill-rule="evenodd" xlink:href="#path-2"></use>
                    <path stroke-opacity="0.1" stroke="#333333" stroke-width="1" d="M102.825381,4.22414916 C98.7763419,2.32528447 88.1403436,0.906084121 76.7800209,1.09110971 C62.3917111,1.32545214 48.1969709,3.91613859 36.2409094,9.127043 C21.6565472,15.4834604 11.0536978,25.4045857 5.56260097,39.2119195 C-0.837097322,55.3039269 -0.144570484,76.2820466 8.66896814,102.530575 C14.2633544,119.191806 35.8302458,122.264122 62.8166668,112.545224 C89.0807374,103.086472 113.282165,83.9806726 122.004835,64.4217277 C129.869364,46.7870039 130.133443,33.021211 124.303155,22.3922847 C119.935865,14.4304828 112.729461,8.86883371 102.825381,4.22414916 Z"></path>
                </g>
                <g id="Group-2" transform="translate(59.000000, 47.000000)">
                    <g id="Oval-Copy">
                        <use fill="#FFFFFF" fill-rule="evenodd" xlink:href="#path-3"></use>
                        <circle stroke="#070707" stroke-width="1" cx="14" cy="14.0078125" r="13.4921875"></circle>
                    </g>
                    <g id="Oval-Copy-2">
                        <use fill="#242424" fill-rule="evenodd" xlink:href="#path-4"></use>
                        <circle stroke-opacity="0.1" stroke="#333333" stroke-width="1" cx="14" cy="14.5" r="7.14550781"></circle>
                    </g>
                </g>
                <g id="Group" transform="translate(31.000000, 33.000000)">
                    <g id="Oval-Copy-4">
                        <use fill="#FFFFFF" fill-rule="evenodd" xlink:href="#path-5"></use>
                        <circle stroke="#070707" stroke-width="1" cx="14" cy="14.0078125" r="13.4921875"></circle>
                    </g>
                    <g id="Oval-Copy-3">
                        <use fill="#242424" fill-rule="evenodd" xlink:href="#path-6"></use>
                        <circle stroke-opacity="0.1" stroke="#333333" stroke-width="1" cx="14" cy="14.5" r="7.14550781"></circle>
                    </g>
                </g>
            </g>
        </g>
    </g>
</svg>